<?xml version="1.0" encoding="UTF-8"?>
<!DOCTYPE svg PUBLIC "-//W3C//DTD SVG 1.1//EN" "http://www.w3.org/Graphics/SVG/1.1/DTD/svg11.dtd">
<!-- Creator: CorelDRAW X7 -->
<svg xmlns="http://www.w3.org/2000/svg" xml:space="preserve" width="40mm" height="40mm" version="1.1" style="shape-rendering:geometricPrecision; text-rendering:geometricPrecision; image-rendering:optimizeQuality; fill-rule:evenodd; clip-rule:evenodd"
viewBox="0 0 4000 4000"
 xmlns:xlink="http://www.w3.org/1999/xlink">
 <defs>
  <style type="text/css">
   <![CDATA[
    .fil3 {fill:#4E2516}
    .fil2 {fill:#7A3D24}
    .fil1 {fill:#AD5632}
    .fil0 {fill:#F37B47}
   ]]>
  </style>
 </defs>
 <g id="Layer_x0020_1">
  <metadata id="CorelCorpID_0Corel-Layer"/>
  <g id="_391460536">
   <path class="fil0" d="M2364 2424l-31 0 0 -60 31 0 0 60zm-31 -788l-30 0 0 -30 -30 0 0 -30 -91 0 0 -31 -121 0 0 -30 -61 0 0 30 -30 0 0 31 -61 0 0 30 -61 0 0 30 -30 0 0 31 -60 0 0 30 -31 0 0 30 -30 0 0 31 -30 0 0 121 -31 0 0 242 31 0 0 91 30 0 0 30 30 0 0 61 31 0 0 30 60 0 0 31 30 0 0 30 61 0 0 30 61 0 0 31 121 0 0 -31 30 0 0 31 31 0 0 -31 60 0 0 31 30 0 0 -31 31 0 0 -30 30 0 0 91 30 0 0 -30 31 0 0 -31 30 0 0 -91 -30 0 0 -30 30 0 0 -30 30 0 0 -31 -30 0 0 -30 -30 0 0 -30 -31 0 0 -30 -30 0 0 30 -30 0 0 30 -212 0 0 -30 -31 0 0 -121 31 0 0 -31 -31 0 0 -121 31 0 0 -30 60 0 0 30 31 0 0 -30 454 0 0 -31 152 0 0 31 60 0 0 273 -30 0 0 181 30 0 0 61 -30 0 0 30 -30 0 0 31 30 0 0 333 -91 0 0 30 -30 0 0 -30 -61 0 0 -30 -30 0 0 30 -61 0 0 -30 -30 0 0 -31 -30 0 0 -30 -31 0 0 30 -30 0 0 31 -91 0 0 30 -61 0 0 30 -363 0 0 -30 -121 0 0 -30 -61 0 0 -31 -61 0 0 -30 -30 0 0 -30 -61 0 0 -31 -30 0 0 -30 -30 0 0 -30 -30 0 0 -31 -31 0 0 -30 -30 0 0 -30 -30 0 0 -61 -31 0 0 -30 -30 0 0 -91 -30 0 0 -61 -31 0 0 -181 -30 0 0 -31 30 0 0 -60 -30 0 0 -91 30 0 0 -91 61 0 0 -30 -30 0 0 -61 30 0 0 -91 30 0 0 -30 31 0 0 -61 30 0 0 -30 30 0 0 -30 31 0 0 -31 30 0 0 -30 30 0 0 -30 30 0 0 -31 31 0 0 -30 60 0 0 -30 61 0 0 -31 91 0 0 -30 30 0 0 -30 485 0 0 30 91 0 0 30 30 0 0 31 -30 0 0 30 61 0 0 -30 60 0 0 30 30 0 0 30 61 0 0 31 30 0 0 30 31 0 0 30 30 0 0 31 30 0 0 60 -30 0 0 30 -61 0 0 31 -60 0 0 60 -61 0 0 31 -91 0 0 30 -30 0 0 -30 -61 0 0 -31zm-394 -1606l-60 0 0 31 -31 0 0 30 -30 0 0 30 -30 0 0 31 -30 0 0 30 -31 0 0 30 -30 0 0 30 -30 0 0 31 -31 0 0 30 -30 0 0 30 -30 0 0 31 -31 0 0 30 -30 0 0 30 -30 0 0 31 -30 0 0 30 -31 0 0 30 -30 0 0 30 -30 0 0 31 -31 0 0 30 -30 0 0 30 -30 0 0 31 -31 0 0 30 -30 0 0 30 -30 0 0 31 -30 0 0 30 -31 0 0 30 -30 0 0 30 -30 0 0 31 -31 0 0 30 -30 0 0 30 -30 0 0 31 -31 0 0 30 -30 0 0 30 -30 0 0 31 -31 0 0 30 -30 0 0 30 -30 0 0 31 -30 0 0 30 -31 0 0 30 -30 0 0 30 -30 0 0 31 -31 0 0 30 -30 0 0 30 -30 0 0 31 -31 0 0 30 -30 0 0 30 -30 0 0 31 -30 0 0 30 -31 0 0 30 -30 0 0 30 -30 0 0 31 -31 0 0 30 -30 0 0 30 -30 0 0 31 -31 0 0 30 -30 0 0 30 -30 0 0 31 -30 0 0 30 -31 0 0 30 -30 0 0 30 -30 0 0 31 -31 0 0 30 -30 0 0 152 30 0 0 30 31 0 0 30 30 0 0 31 30 0 0 30 31 0 0 30 30 0 0 30 30 0 0 31 30 0 0 30 31 0 0 30 30 0 0 31 30 0 0 30 31 0 0 30 30 0 0 31 30 0 0 30 31 0 0 30 30 0 0 30 30 0 0 31 30 0 0 30 31 0 0 30 30 0 0 31 30 0 0 30 31 0 0 30 30 0 0 31 30 0 0 30 31 0 0 30 30 0 0 30 30 0 0 31 30 0 0 30 31 0 0 30 30 0 0 31 30 0 0 30 31 0 0 30 30 0 0 31 30 0 0 30 31 0 0 30 30 0 0 31 30 0 0 30 31 0 0 30 30 0 0 30 30 0 0 31 30 0 0 30 31 0 0 30 30 0 0 31 30 0 0 30 31 0 0 30 30 0 0 31 30 0 0 30 31 0 0 30 30 0 0 30 30 0 0 31 30 0 0 30 31 0 0 30 30 0 0 31 30 0 0 30 31 0 0 30 30 0 0 31 30 0 0 30 31 0 0 30 30 0 0 30 30 0 0 31 30 0 0 30 31 0 0 30 30 0 0 31 91 0 0 30 30 0 0 -30 61 0 0 -31 61 0 0 -30 30 0 0 -30 30 0 0 -31 30 0 0 -30 31 0 0 -30 30 0 0 -30 30 0 0 -31 31 0 0 -30 30 0 0 -30 30 0 0 -31 31 0 0 -30 30 0 0 -30 30 0 0 -31 30 0 0 -30 31 0 0 -30 30 0 0 -30 30 0 0 -31 31 0 0 -30 30 0 0 -30 30 0 0 -31 31 0 0 -30 30 0 0 -30 30 0 0 -31 30 0 0 -30 31 0 0 -30 30 0 0 -30 30 0 0 -31 31 0 0 -30 30 0 0 -30 30 0 0 -31 31 0 0 -30 30 0 0 -30 30 0 0 -31 31 0 0 -30 30 0 0 -30 30 0 0 -31 30 0 0 -30 31 0 0 -30 30 0 0 -30 30 0 0 -31 31 0 0 -30 30 0 0 -30 30 0 0 -31 31 0 0 -30 30 0 0 -30 30 0 0 -31 30 0 0 -30 31 0 0 -30 30 0 0 -30 30 0 0 -31 31 0 0 -30 30 0 0 -30 30 0 0 -31 31 0 0 -30 30 0 0 -30 30 0 0 -31 30 0 0 -30 31 0 0 -30 30 0 0 -30 30 0 0 -31 31 0 0 -60 30 0 0 -182 -30 0 0 -31 -31 0 0 -30 -30 0 0 -30 -30 0 0 -30 -31 0 0 -31 -30 0 0 -30 -30 0 0 -30 -30 0 0 -31 -31 0 0 -30 -30 0 0 -30 -30 0 0 -31 -31 0 0 -30 -30 0 0 -30 -30 0 0 -30 -31 0 0 -31 -30 0 0 -30 -30 0 0 -30 -30 0 0 -31 -31 0 0 -30 -30 0 0 -30 -30 0 0 -31 -31 0 0 -30 -30 0 0 -30 -30 0 0 -30 -31 0 0 -31 -30 0 0 -30 -30 0 0 -30 -30 0 0 -31 -31 0 0 -30 -30 0 0 -30 -30 0 0 -31 -31 0 0 -30 -30 0 0 -30 -30 0 0 -31 -31 0 0 -30 -30 0 0 -30 -30 0 0 -30 -31 0 0 -31 -30 0 0 -30 -30 0 0 -30 -30 0 0 -31 -31 0 0 -30 -30 0 0 -30 -30 0 0 -31 -31 0 0 -30 -30 0 0 -30 -30 0 0 -30 -31 0 0 -31 -30 0 0 -30 -30 0 0 -30 -30 0 0 -31 -31 0 0 -30 -30 0 0 -30 -30 0 0 -31 -31 0 0 -30 -30 0 0 -30 -30 0 0 -30 -31 0 0 -31 -30 0 0 -30 -30 0 0 -30 -30 0 0 -31 -61 0 0 -30 -152 0 0 30z"/>
   <path class="fil0" d="M2545 2455l31 0 0 30 -31 0 0 -30zm0 -61l31 0 0 30 -31 0 0 -30zm122 -121l0 30 -31 0 0 -30 31 0zm-61 -121l30 0 0 60 -30 0 0 -60zm-91 -31l0 91 -30 0 0 -30 -30 0 0 -61 60 0zm-30 424l30 0 0 -30 61 0 0 30 30 0 0 -60 91 0 0 -30 -91 0 0 -31 61 0 0 -30 30 0 0 -30 -91 0 0 -31 91 0 0 -60 -30 0 0 -31 30 0 0 -90 -30 0 0 -31 30 0 0 -30 -30 0 0 -61 -61 0 0 61 -30 0 0 30 -61 0 0 -91 -30 0 0 31 -30 0 0 30 -31 0 0 121 31 0 0 30 151 0 0 31 -61 0 0 60 -30 0 0 91 -60 0 0 31 -61 0 0 60 61 0 0 -30 30 0 0 60z"/>
   <polygon class="fil1" points="2818,2061 2818,1879 2758,1879 2758,1848 2606,1848 2606,1879 2727,1879 2727,1909 2788,1909 2788,2061 "/>
   <polygon class="fil1" points="2424,2273 2424,2303 2455,2303 2455,2333 2485,2333 2485,2364 2455,2364 2455,2394 2515,2394 2515,2333 2545,2333 2545,2273 2606,2273 2606,2242 2515,2242 2515,2273 "/>
   <path class="fil1" d="M1939 2667l0 -31 31 0 0 31 -31 0zm0 0l0 30 91 0 0 -30 31 0 0 -31 -61 0 0 -60 -61 0 0 30 -30 0 0 61 30 0z"/>
   <polygon class="fil1" points="2212,2636 2242,2636 2242,2667 2303,2667 2303,2636 2333,2636 2333,2576 2303,2576 2303,2606 2242,2606 2242,2545 2212,2545 2212,2576 2182,2576 2182,2606 2212,2606 "/>
   <polygon class="fil1" points="2061,2636 2121,2636 2121,2667 2152,2667 2152,2606 2121,2606 2121,2576 2061,2576 2061,2545 2030,2545 2030,2606 2061,2606 "/>
   <polygon class="fil1" points="1424,1788 1394,1788 1394,1818 1364,1818 1364,1848 1333,1848 1333,1909 1364,1909 1364,1879 1394,1879 1394,1848 1424,1848 1424,1818 1455,1818 1455,1758 1424,1758 "/>
   <polygon class="fil1" points="1758,1303 1727,1303 1727,1333 1697,1333 1697,1394 1727,1394 1727,1364 1758,1364 1758,1333 1788,1333 1788,1273 1758,1273 "/>
   <polygon class="fil1" points="1848,2576 1788,2576 1788,2667 1758,2667 1758,2697 1818,2697 1818,2606 1848,2606 "/>
   <polygon class="fil1" points="1848,1394 1848,1455 1879,1455 1879,1424 1939,1424 1939,1364 1909,1364 1909,1394 "/>
   <polygon class="fil1" points="2455,2606 2455,2667 2485,2667 2485,2636 2545,2636 2545,2576 2515,2576 2515,2606 "/>
   <polygon class="fil1" points="1455,2273 1485,2273 1485,2303 1576,2303 1576,2273 1515,2273 1515,2242 1455,2242 "/>
   <polygon class="fil1" points="2364,1424 2394,1424 2394,1455 2455,1455 2455,1424 2424,1424 2424,1394 2364,1394 "/>
   <polygon class="fil1" points="2091,1424 2091,1455 2121,1455 2121,1485 2152,1485 2152,1424 "/>
   <polygon class="fil2" points="2606,2606 2636,2606 2636,2636 2667,2636 2667,2576 2606,2576 "/>
   <polygon class="fil0" points="2364,1970 2394,1970 2394,1939 2424,1939 2424,1909 2364,1909 "/>
   <polygon class="fil0" points="1727,2485 1788,2485 1788,2455 1758,2455 1758,2424 1727,2424 "/>
   <polygon class="fil1" points="1636,2394 1697,2394 1697,2333 1667,2333 1667,2364 1636,2364 "/>
   <polygon class="fil2" points="2152,2545 2182,2545 2182,2515 2212,2515 2212,2485 2152,2485 "/>
   <polygon class="fil1" points="2515,2030 2545,2030 2545,1970 2485,1970 2485,2000 2515,2000 "/>
   <polygon class="fil0" points="2242,1364 2273,1364 2273,1303 2212,1303 2212,1333 2242,1333 "/>
   <polygon class="fil1" points="1576,1818 1606,1818 1606,1788 1636,1788 1636,1758 1576,1758 "/>
   <polygon class="fil1" points="2424,2000 2394,2000 2394,2030 2455,2030 2455,1970 2424,1970 "/>
   <polygon class="fil0" points="1394,2303 1364,2303 1364,2333 1424,2333 1424,2273 1394,2273 "/>
   <polygon class="fil0" points="2455,2606 2455,2576 2485,2576 2485,2545 2424,2545 2424,2606 "/>
   <polygon class="fil1" points="2030,2697 2030,2727 2091,2727 2091,2667 2061,2667 2061,2697 "/>
   <polygon class="fil1" points="2333,1364 2364,1364 2364,1303 2303,1303 2303,1333 2333,1333 "/>
   <polygon class="fil2" points="2242,1364 2242,1333 2182,1333 2182,1394 2212,1394 2212,1364 "/>
   <polygon class="fil1" points="1970,1394 2030,1394 2030,1364 1970,1364 "/>
   <polygon class="fil2" points="2242,1455 2273,1455 2273,1394 2242,1394 "/>
   <polygon class="fil1" points="2364,1545 2364,1606 2394,1606 2394,1545 "/>
   <polygon class="fil3" points="2818,2091 2788,2091 2788,2152 2818,2152 "/>
   <polygon class="fil1" points="1455,2394 1515,2394 1515,2364 1455,2364 "/>
   <polygon class="fil2" points="1879,2515 1909,2515 1909,2455 1879,2455 "/>
   <polygon class="fil2" points="1606,2545 1636,2545 1636,2485 1606,2485 "/>
   <polygon class="fil1" points="2697,2485 2697,2545 2727,2545 2727,2485 "/>
   <polygon class="fil1" points="2030,2727 1970,2727 1970,2758 2030,2758 "/>
   <polygon class="fil1" points="2394,2606 2394,2545 2364,2545 2364,2606 "/>
   <polygon class="fil1" points="1606,1455 1667,1455 1667,1424 1606,1424 "/>
   <polygon class="fil1" points="2242,1455 2212,1455 2212,1515 2242,1515 "/>
   <polygon class="fil1" points="1939,2697 1879,2697 1879,2727 1939,2727 "/>
   <polygon class="fil1" points="1697,2606 1727,2606 1727,2545 1697,2545 "/>
   <polygon class="fil0" points="1848,1394 1848,1364 1788,1364 1788,1394 "/>
   <polygon class="fil1" points="2667,2030 2727,2030 2727,2000 2667,2000 "/>
   <polygon class="fil0" points="1636,2394 1576,2394 1576,2424 1636,2424 "/>
   <polygon class="fil0" points="1848,2545 1848,2576 1909,2576 1909,2545 "/>
   <polygon class="fil1" points="2303,2030 2364,2030 2364,2000 2303,2000 "/>
   <polygon class="fil1" points="1818,2364 1788,2364 1788,2424 1818,2424 "/>
   <polygon class="fil1" points="2364,1545 2364,1485 2333,1485 2333,1545 "/>
   <polygon class="fil1" points="1545,2364 1576,2364 1576,2333 1545,2333 "/>
   <polygon class="fil2" points="2091,2545 2121,2545 2121,2515 2091,2515 "/>
   <polygon class="fil2" points="1485,2212 1515,2212 1515,2182 1485,2182 "/>
   <polygon class="fil1" points="1848,2545 1848,2515 1818,2515 1818,2545 "/>
   <polygon class="fil0" points="2697,2121 2697,2152 2727,2152 2727,2121 "/>
   <polygon class="fil0" points="1455,2091 1424,2091 1424,2121 1455,2121 "/>
   <polygon class="fil1" points="2576,2091 2576,2061 2545,2061 2545,2091 "/>
   <polygon class="fil1" points="2273,2061 2242,2061 2242,2091 2273,2091 "/>
   <polygon class="fil0" points="1455,2091 1485,2091 1485,2061 1455,2061 "/>
   <polygon class="fil0" points="2303,2030 2273,2030 2273,2061 2303,2061 "/>
   <polygon class="fil1" points="1333,2061 1364,2061 1364,2030 1333,2030 "/>
   <polygon class="fil3" points="2697,2788 2667,2788 2667,2818 2697,2818 "/>
   <polygon class="fil1" points="1667,2485 1697,2485 1697,2455 1667,2455 "/>
   <polygon class="fil1" points="2242,2000 2273,2000 2273,1970 2242,1970 "/>
   <polygon class="fil1" points="2303,1970 2333,1970 2333,1939 2303,1939 "/>
   <polygon class="fil1" points="1273,1970 1303,1970 1303,1939 1273,1939 "/>
   <polygon class="fil0" points="1848,1515 1848,1545 1879,1545 1879,1515 "/>
   <polygon class="fil2" points="2121,1303 2152,1303 2152,1273 2121,1273 "/>
   <polygon class="fil0" points="1758,1667 1758,1636 1727,1636 1727,1667 "/>
   <polygon class="fil1" points="2424,2606 2394,2606 2394,2636 2424,2636 "/>
   <polygon class="fil2" points="1455,1606 1485,1606 1485,1576 1455,1576 "/>
   <polygon class="fil1" points="2515,1515 2485,1515 2485,1545 2515,1545 "/>
   <polygon class="fil3" points="2394,2364 2394,2394 2424,2394 2424,2364 "/>
   <polygon class="fil1" points="2697,2333 2697,2364 2727,2364 2727,2333 "/>
   <polygon class="fil1" points="2333,1364 2303,1364 2303,1394 2333,1394 "/>
   <polygon class="fil1" points="2030,1455 2030,1424 2000,1424 2000,1455 "/>
   <polygon class="fil1" points="1939,1424 1939,1455 1970,1455 1970,1424 "/>
   <polygon class="fil1" points="2273,2545 2303,2545 2303,2515 2273,2515 "/>
   <polygon class="fil1" points="2030,1455 2030,1485 2061,1485 2061,1455 "/>
   <polygon class="fil0" points="1576,1576 1606,1576 1606,1545 1576,1545 "/>
   <polygon class="fil2" points="2121,1303 2091,1303 2091,1333 2121,1333 "/>
   <polygon class="fil0" points="1848,1545 1818,1545 1818,1576 1848,1576 "/>
   <polygon class="fil1" points="2030,1273 2061,1273 2061,1242 2030,1242 "/>
   <polygon class="fil3" points="1848,1182 1818,1182 1818,1212 1848,1212 "/>
   <polygon class="fil1" points="1364,2182 1394,2182 1394,2152 1364,2152 "/>
   <polygon class="fil1" points="1273,2030 1303,2030 1303,2000 1273,2000 "/>
   <polygon class="fil3" points="1242,1879 1212,1879 1212,1909 1242,1909 "/>
   <polygon class="fil3" points="2364,1667 2364,1636 2333,1636 2333,1667 "/>
   <polygon class="fil0" points="2515,1515 2545,1515 2545,1485 2515,1485 "/>
   <polygon class="fil0" points="2273,1515 2303,1515 2303,1485 2273,1485 "/>
   <polygon class="fil1" points="1848,1515 1848,1485 1818,1485 1818,1515 "/>
   <polygon class="fil1" points="1485,1515 1515,1515 1515,1485 1485,1485 "/>
   <polygon class="fil1" points="2091,1424 2091,1394 2061,1394 2061,1424 "/>
   <polygon class="fil1" points="2606,2697 2636,2697 2636,2667 2606,2667 "/>
   <polygon class="fil1" points="1818,1576 1788,1576 1788,1606 1818,1606 "/>
   <polygon class="fil0" points="2212,1455 2212,1424 2182,1424 2182,1455 "/>
   <polygon class="fil1" points="2212,2636 2182,2636 2182,2667 2212,2667 "/>
  </g>
 </g>
</svg>
